<svg width="230" height="230" viewBox="0 0 230 230" fill="none" xmlns="http://www.w3.org/2000/svg">
<circle cx="115" cy="115" r="115" fill="#059B9B"/>
<path d="M230 0.37741C182.618 29.5479 158.423 -3.8565 106 0.37741L140.276 37.5462L230 118V0.37741Z" fill="#059B9B"/>
<path d="M96.2266 175.793C96.2031 174.504 96.2031 172.922 96.2266 171.047C95.2188 170.695 93.9414 170.52 92.3945 170.52C90.3086 170.52 88.5977 171.023 87.2617 172.031C86.6055 172.547 86.0781 173.18 85.6797 173.93C85.2812 174.656 85.082 175.605 85.082 176.777C85.082 177.926 85.4805 178.887 86.2773 179.66C87.0742 180.434 88.2461 180.82 89.793 180.82C91.3398 180.82 93.0625 179.766 94.9609 177.656C95.5 177.07 95.9219 176.449 96.2266 175.793ZM98.4766 183.738C97.0703 183.738 96.3672 182.672 96.3672 180.539C96.3672 180.398 96.3555 180 96.332 179.344C96.1211 179.602 95.8867 179.883 95.6289 180.188C93.5195 182.578 91.2227 183.773 88.7383 183.773C86.7461 183.773 85.0938 183.141 83.7812 181.875C82.4219 180.562 81.7422 178.887 81.7422 176.848C81.7422 174.012 82.8438 171.727 85.0469 169.992C86.0312 169.219 87.1328 168.633 88.3516 168.234C89.5938 167.836 90.9766 167.637 92.5 167.637C93.7656 167.637 95.0078 167.848 96.2266 168.27V164.543C96.2266 162.48 95.793 160.934 94.9258 159.902C94.082 158.871 93.2031 158.355 92.2891 158.355C91.375 158.355 90.625 158.473 90.0391 158.707C89.4766 158.941 88.9727 159.281 88.5273 159.727C87.543 160.688 86.9805 161.883 86.8398 163.312C86.9102 164.062 86.7578 164.59 86.3828 164.895C86.0078 165.176 85.5977 165.316 85.1523 165.316C83.8867 165.316 83.2773 164.473 83.3242 162.785C83.3711 161.027 84.2617 159.41 85.9961 157.934C87.7773 156.41 89.7695 155.648 91.9727 155.648C95.2539 155.648 97.4688 157.277 98.6172 160.535C99.0156 161.707 99.2148 162.996 99.2148 164.402V168.023L99.1797 173.93V177.059C99.1797 178.465 99.3438 179.602 99.6719 180.469C100.023 181.336 100.199 181.957 100.199 182.332C100.199 182.684 100.023 183 99.6719 183.281C99.3203 183.586 98.9219 183.738 98.4766 183.738ZM125.547 165.949L125.477 173.543C125.477 176.051 125.559 178.395 125.723 180.574C125.77 181.371 125.57 181.969 125.125 182.367C124.703 182.742 124.246 182.93 123.754 182.93C123.285 182.93 122.852 182.754 122.453 182.402C122.078 182.027 121.926 181.477 121.996 180.75C122.09 180 122.16 179.145 122.207 178.184C122.277 177.223 122.336 176.227 122.383 175.195C122.477 173.133 122.523 171.434 122.523 170.098C122.523 168.738 122.5 167.754 122.453 167.145C122.406 166.535 122.359 165.633 122.312 164.438C122.266 163.219 121.949 162.082 121.363 161.027C120.777 159.949 119.957 159.41 118.902 159.41C117.848 159.41 116.934 159.633 116.16 160.078C115.387 160.523 114.672 161.109 114.016 161.836C112.68 163.406 111.789 165.234 111.344 167.32C111.32 167.977 111.309 168.621 111.309 169.254V171.082C111.309 175.324 111.355 178.137 111.449 179.52C111.543 180.879 111.461 181.793 111.203 182.262C110.945 182.707 110.488 182.93 109.832 182.93C109.199 182.93 108.695 182.73 108.32 182.332C107.969 181.91 107.828 181.148 107.898 180.047C108.133 177.023 108.25 173.918 108.25 170.73C108.25 165.27 108.168 161.262 108.004 158.707C107.91 157.137 108.566 156.352 109.973 156.352C110.699 156.352 111.156 156.574 111.344 157.02C111.555 157.465 111.625 157.934 111.555 158.426C111.508 158.918 111.473 159.34 111.449 159.691C111.449 160.043 111.449 160.406 111.449 160.781C111.449 161.156 111.449 161.496 111.449 161.801C112.832 159.176 114.672 157.453 116.969 156.633C117.695 156.375 118.434 156.246 119.184 156.246C119.934 156.246 120.707 156.422 121.504 156.773C122.301 157.102 122.992 157.652 123.578 158.426C124.891 160.113 125.547 162.621 125.547 165.949ZM145.305 159.34C144.531 158.777 143.617 158.496 142.562 158.496C141.531 158.496 140.582 158.789 139.715 159.375C138.871 159.938 138.156 160.734 137.57 161.766C136.375 163.828 135.777 166.664 135.777 170.273C135.777 173.859 136.352 176.508 137.5 178.219C138.648 179.93 140.184 180.785 142.105 180.785C144.215 180.785 145.902 179.578 147.168 177.164C148.293 175.008 148.855 172.359 148.855 169.219C148.855 164.391 147.672 161.098 145.305 159.34ZM142.07 183.773C140.734 183.797 139.48 183.527 138.309 182.965C137.16 182.379 136.164 181.477 135.32 180.258C133.469 177.68 132.543 174.012 132.543 169.254C132.543 164.988 133.539 161.625 135.531 159.164C137.406 156.82 139.891 155.648 142.984 155.648C145.586 155.648 147.742 156.773 149.453 159.023C151.211 161.414 152.09 164.695 152.09 168.867C152.09 173.508 151.07 177.211 149.031 179.977C147.203 182.461 144.883 183.727 142.07 183.773ZM160.422 174.105C161.5 174.105 161.98 175.078 161.863 177.023C161.77 178.172 162.215 179.156 163.199 179.977C164.137 180.773 165.344 181.172 166.82 181.172C168.32 181.172 169.527 180.762 170.441 179.941C171.355 179.121 171.812 178.102 171.812 176.883C171.812 175.641 171.508 174.68 170.898 174C170.289 173.297 169.527 172.676 168.613 172.137C167.699 171.574 166.715 171.047 165.66 170.555C164.605 170.039 163.621 169.453 162.707 168.797C160.574 167.227 159.508 165.293 159.508 162.996C159.508 161.004 160.188 159.352 161.547 158.039C163 156.609 164.887 155.895 167.207 155.895C169.199 155.895 170.863 156.469 172.199 157.617C173.629 158.836 174.344 160.418 174.344 162.363C174.484 163.324 174.355 164.039 173.957 164.508C173.559 164.953 173.09 165.176 172.551 165.176C172.035 165.176 171.613 164.941 171.285 164.473C170.98 164.004 170.84 163.453 170.863 162.82C170.91 162.188 170.875 161.637 170.758 161.168C170.664 160.676 170.465 160.23 170.16 159.832C169.48 158.941 168.379 158.496 166.855 158.496C165.637 158.496 164.746 158.789 164.184 159.375C163.223 160.383 162.742 161.438 162.742 162.539C162.742 163.641 163.047 164.555 163.656 165.281C164.266 165.984 165.027 166.629 165.941 167.215C166.855 167.777 167.84 168.316 168.895 168.832C169.949 169.348 170.934 169.934 171.848 170.59C173.98 172.113 175.047 174.023 175.047 176.32C175.047 178.523 174.32 180.305 172.867 181.664C171.344 183.094 169.223 183.809 166.504 183.809C164.16 183.809 162.203 183.117 160.633 181.734C159.016 180.352 158.277 178.617 158.418 176.531C158.512 174.914 159.18 174.105 160.422 174.105Z" fill="white"/>
<path d="M54.48 59V44.024H84.432V149H67.872V59H54.48ZM106.984 95.144C106.984 78.536 109.768 65.576 115.336 56.264C121 46.856 130.696 42.152 144.424 42.152C158.152 42.152 167.8 46.856 173.368 56.264C179.032 65.576 181.864 78.536 181.864 95.144C181.864 111.944 179.032 125.096 173.368 134.6C167.8 144.008 158.152 148.712 144.424 148.712C130.696 148.712 121 144.008 115.336 134.6C109.768 125.096 106.984 111.944 106.984 95.144ZM165.736 95.144C165.736 87.368 165.208 80.792 164.152 75.416C163.192 70.04 161.176 65.672 158.104 62.312C155.032 58.856 150.472 57.128 144.424 57.128C138.376 57.128 133.816 58.856 130.744 62.312C127.672 65.672 125.608 70.04 124.552 75.416C123.592 80.792 123.112 87.368 123.112 95.144C123.112 103.208 123.592 109.976 124.552 115.448C125.512 120.92 127.528 125.336 130.6 128.696C133.768 132.056 138.376 133.736 144.424 133.736C150.472 133.736 155.032 132.056 158.104 128.696C161.272 125.336 163.336 120.92 164.296 115.448C165.256 109.976 165.736 103.208 165.736 95.144Z" fill="white"/>
</svg>
