<?xml version="1.0" encoding="UTF-8" standalone="no"?>
<!-- Created with Inkscape (http://www.inkscape.org/) -->

<svg
   width="92.342865mm"
   height="92.357468mm"
   viewBox="0 0 92.342865 92.357468"
   version="1.1"
   id="svg5"
   inkscape:version="1.1 (1:1.1+202105261517+ce6663b3b7)"
   sodipodi:docname="logo.svg"
   xmlns:inkscape="http://www.inkscape.org/namespaces/inkscape"
   xmlns:sodipodi="http://sodipodi.sourceforge.net/DTD/sodipodi-0.dtd"
   xmlns:xlink="http://www.w3.org/1999/xlink"
   xmlns="http://www.w3.org/2000/svg"
   xmlns:svg="http://www.w3.org/2000/svg">
  <sodipodi:namedview
     id="namedview7"
     pagecolor="#ffffff"
     bordercolor="#666666"
     borderopacity="1.0"
     inkscape:pageshadow="2"
     inkscape:pageopacity="0.0"
     inkscape:pagecheckerboard="0"
     inkscape:document-units="mm"
     showgrid="false"
     inkscape:zoom="2"
     inkscape:cx="138"
     inkscape:cy="177.75"
     inkscape:window-width="1920"
     inkscape:window-height="1016"
     inkscape:window-x="0"
     inkscape:window-y="27"
     inkscape:window-maximized="1"
     inkscape:current-layer="layer2" />
  <defs
     id="defs2">
    <color-profile
       name="Apple-RGB"
       xlink:href="file:///usr/share/color/icc/colord/AppleRGB.icc"
       id="color-profile967" />
  </defs>
  <g
     inkscape:groupmode="layer"
     id="layer2"
     inkscape:label="Camada 2"
     style="display:inline"
     sodipodi:insensitive="true">
    <path
       style="fill:#ffffff;stroke:#ffffff;stroke-width:0.264583px;stroke-linecap:butt;stroke-linejoin:miter;stroke-opacity:1"
       d="m 13.306904,14.935891 h 20.180432 l -0.03906,0.243081 -0.690319,5.952038 -0.925743,7.994693 -0.695155,6.094783 -0.630894,5.50246 -1.466818,12.744053 -0.346337,2.910174 -0.06579,0.468719 -9.328641,-0.0099 -0.627193,-0.01886 -0.52896,-0.02355 -0.187737,-0.01802 -0.102456,-0.02373 -0.15994,-1.379934 -0.376163,-3.448018 -1.14514,-10.607583 -1.039017,-9.619472 -1.01047,-9.449786 -0.768908,-7.027791 z"
       id="path6278" />
    <rect
       style="fill:#ffffff;fill-opacity:1;stroke:#ffffff;stroke-width:0.264583"
       id="rect6458"
       width="16.340666"
       height="16.933334"
       x="15.099789"
       y="61.248562" />
    <path
       style="fill:#ffffff;stroke:#ffffff;stroke-width:0.264583px;stroke-linecap:butt;stroke-linejoin:miter;stroke-opacity:1"
       d="m 44.369455,15.801683 -11.911253,29.925492 5.986825,0.631769 3.437244,0.0593 2.532793,-7.137678 2.362509,-0.443653 -0.796806,8.123171 0.200496,0.114983 11.41171,-2.777284 -6.78637,-29.157858 z"
       id="path6808" />
    <path
       style="fill:#ffffff;stroke:#ffffff;stroke-width:0.264583px;stroke-linecap:butt;stroke-linejoin:miter;stroke-opacity:1"
       d="m 53.827282,58.945337 1.205175,-10.736077 -1.405417,-0.668784 -4.934868,-0.01172 -6.46417,1.495739 -3.831709,2.682658 -4.738788,5.691995 -1.266817,4.317166 -0.303421,3.62222 c 0,0 -0.30796,1.986801 -0.237853,2.237727 0.07011,0.250925 1.933268,5.642036 1.933268,5.642036 0,0 0.604568,2.139225 1.399633,2.446689 0.795065,0.307464 4.91495,2.671913 4.91495,2.671913 0,0 7.969051,1.100622 8.15757,1.101082 0.188518,5.3e-4 5.943814,-1.760918 5.943814,-1.760918 l 1.419381,-1.070745 0.304681,3.853781 0.526579,1.196456 2.937317,0.424336 c 0,0 4.420237,0.198496 4.636198,0.274934 0.215964,0.07644 6.524355,0.003 6.524355,0.003 l 6.083276,-2.036318 1.46398,-1.205455 1.290449,-1.193104 1.548167,-1.794251 1.211668,-2.384186 0.236071,-5.422956 -1.739153,-2.125895 -0.66593,-1.950675 3.527806,-5.809327 c 0,0 -0.142431,-4.856117 -0.49335,-5.248502 -0.35092,-0.392388 -2.508367,-3.798644 -2.508367,-3.798644 l -4.528034,-1.099918 -14.453507,-0.570013 -2.706103,0.417163 -0.657942,0.65396 c 0,0 -1.161566,5.83719 -1.162145,6.074098 -5.29e-4,0.23691 0.0788,1.896369 0.0788,1.896369 l 2.354773,2.78584 0.187941,2.278767 -0.09235,6.589178 -0.314421,4.019595 -3.483218,-0.25993 -1.098653,-4.626718 -0.904296,-2.72491 z"
       id="path6878" />
    <path
       style="fill:#ffffff;stroke:#ffffff;stroke-width:0.264583px;stroke-linecap:butt;stroke-linejoin:miter;stroke-opacity:1"
       d="m 79.392573,14.530178 0.571889,0.527992 -2.681222,11.459369 1.602425,1.041344 0.444537,17.328623 -2.727872,1.442972 -2.943498,1.41641 -12.760428,-1.460654 -2.66673,-3.974073 -2.047856,-2.397943 -3.121629,-8.013416 0.960732,-7.190399 c 0,0 3.423046,-6.342597 3.721489,-6.461129 0.298442,-0.118534 11.138825,-5.35642 11.138825,-5.35642 0,0 3.850042,0.201469 4.29209,0.202548 0.442044,0.0011 4.792112,0.435824 4.792112,0.435824 z"
       id="path7695" />
  </g>
  <g
     inkscape:label="Camada 1"
     inkscape:groupmode="layer"
     id="layer1"
     transform="translate(-65.970391,-20.66537)"
     style="display:inline"
     sodipodi:insensitive="true">
    <g
       id="g2418"
       transform="translate(-8.219704,4.8076054)">
      <path
         style="fill:#d0d0d0;fill-opacity:1;stroke-width:0.0846667"
         d="m 123.90268,63.755826 c 0.0611,-0.02446 0.13414,-0.02145 0.16228,0.0067 0.0281,0.02813 -0.0219,0.04815 -0.11113,0.04447 -0.0986,-0.0041 -0.11869,-0.02412 -0.0511,-0.05115 z m 2.11666,0 c 0.0611,-0.02446 0.13415,-0.02145 0.16228,0.0067 0.0281,0.02813 -0.0219,0.04815 -0.11112,0.04447 -0.0986,-0.0041 -0.1187,-0.02412 -0.0512,-0.05115 z"
         id="path2432"
         sodipodi:nodetypes="cscccsscss" />
      <path
         style="fill:#606060;fill-opacity:1;stroke-width:0.0846667"
         d="m 153.89056,78.264796 c 0,-0.01457 0.12382,-0.138396 0.27516,-0.275166 l 0.27517,-0.248674 -0.24867,0.275167 c -0.2318,0.256494 -0.30166,0.314083 -0.30166,0.248673 z"
         id="path2422"
         sodipodi:nodetypes="ssscs" />
      <path
         style="fill:#9b0505;fill-opacity:1;stroke-width:0.0846667"
         d="M 119.13489,108.20444 C 99.496963,107.68525 82.33335,94.787793 76.341905,76.047993 74.261844,69.542062 73.671735,62.349529 74.650444,55.431658 76.626159,41.466588 85.076417,29.034276 97.406385,21.952332 106.29877,16.844825 116.6794,14.86817 126.96655,16.32355 c 17.24605,2.439892 31.75546,14.603363 37.25815,31.234107 1.37499,4.155592 2.09626,8.168343 2.27137,12.636501 0.24258,6.189953 -0.71256,12.246875 -2.82717,17.928168 -5.9682,16.034656 -20.46822,27.574704 -37.33735,29.715464 -2.09392,0.26572 -5.14138,0.42099 -7.19666,0.36665 z m 24.765,-10.696629 c 6.68749,-0.599381 10.72401,-3.189376 11.93991,-7.661123 0.27946,-1.027757 0.32565,-2.941559 0.0976,-4.042629 -0.20443,-0.986953 -0.6746,-2.004807 -1.25911,-2.725855 -0.84619,-1.043851 -2.25979,-1.952436 -3.67276,-2.360662 l -0.71328,-0.206073 0.75684,-0.349831 c 1.49603,-0.691496 3.00573,-1.860657 3.83652,-2.971123 0.4802,-0.641848 1.00438,-1.71788 1.22323,-2.511032 0.25385,-0.919998 0.27472,-3.240672 0.0372,-4.134824 -1.17498,-4.422957 -5.46611,-6.217971 -14.40511,-6.025785 -1.35044,0.02904 -3.16019,0.110865 -4.02167,0.181846 -1.67627,0.138114 -4.00267,0.378056 -4.04145,0.416829 -0.013,0.01295 -0.099,0.433966 -0.19111,0.93558 -0.0922,0.501615 -0.4205,2.092639 -0.72965,3.53561 -0.70485,3.289923 -0.79553,3.05182 1.02659,2.695711 4.3485,-0.849855 8.25504,-0.896794 9.81995,-0.117993 0.56817,0.282757 0.84049,0.557571 1.06143,1.071152 0.40922,0.951269 -0.11696,2.136762 -1.19178,2.685096 -1.24256,0.633904 -4.78865,0.860682 -7.31698,0.467933 -0.47838,-0.07431 -0.81212,-0.08924 -0.90335,-0.04041 -0.16684,0.08929 -0.16366,0.06176 -0.41523,3.592436 -0.0962,1.350433 -0.19711,2.760815 -0.22421,3.13418 -0.066,0.909306 -0.0495,0.921804 1.04201,0.788415 1.13178,-0.138317 4.96174,-0.137679 5.83145,9.74e-4 1.5038,0.239741 2.32873,0.546758 2.93094,1.090826 0.55122,0.497994 0.70752,0.876577 0.70871,1.716608 8.7e-4,0.615713 -0.0328,0.788455 -0.23285,1.195878 -0.63341,1.2898 -2.3587,2.125919 -4.63399,2.245747 -2.32524,0.12246 -6.0577,-0.468928 -9.10023,-1.44188 -0.60928,-0.194837 -0.69405,-0.203784 -0.86562,-0.09137 -0.14306,0.09374 -0.18019,0.1822 -0.14982,0.356955 0.0744,0.428275 0.285,2.922224 0.42354,5.016001 0.0755,1.140884 0.15269,2.154354 0.17155,2.252157 0.0299,0.155002 0.16217,0.201946 1.0307,0.365788 2.66242,0.502251 4.77354,0.795985 6.66907,0.927921 1.48873,0.103624 4.34193,0.107256 5.461,0.0069 z m -20.30553,-3.583282 c 1.57505,-0.294785 3.20776,-0.971039 5.25772,-2.177708 0.56951,-0.335232 1.04731,-0.619197 1.06178,-0.631035 0.0375,-0.0307 -2.58604,-10.120416 -2.64755,-10.181929 -0.028,-0.02804 -0.2221,0.144631 -0.43124,0.383711 -0.55059,0.629401 -1.50512,1.368992 -2.30176,1.783451 -1.14187,0.594066 -2.62186,0.882111 -3.55458,0.691816 -1.1467,-0.23395 -2.50261,-1.263887 -2.96585,-2.252824 -0.20957,-0.447383 -0.23266,-0.58913 -0.23266,-1.428018 0,-1.138178 0.19294,-1.778978 0.81624,-2.710879 1.29273,-1.932797 3.69675,-3.087329 6.44559,-3.0955 0.9585,-0.0029 1.32419,0.04463 2.37298,0.308075 0.3155,0.07925 0.58583,0.129588 0.60074,0.111863 0.0286,-0.03401 1.07065,-10.434237 1.06863,-10.66561 -0.003,-0.304831 -4.77215,-0.447976 -6.66434,-0.200015 -4.38906,0.575159 -7.96527,2.490866 -10.79367,5.781953 -2.47038,2.87449 -3.8758,5.742122 -4.44672,9.073113 -0.19591,1.143007 -0.19041,3.735535 0.0103,4.868333 0.81998,4.627368 4.02934,8.384381 8.41828,9.854811 0.68052,0.227997 2.08233,0.534637 2.89161,0.632529 0.75084,0.09082 4.38544,-0.01344 5.09447,-0.146137 z m -17.96381,-8.351536 v -8.466667 h -8.170332 -8.170334 v 8.466667 8.466668 h 8.170334 8.170332 z m -2.76216,-13.229167 c 0.0281,-0.197909 1.0992,-9.484784 2.38025,-20.637502 1.28106,-11.152717 2.3516,-20.420543 2.37899,-20.595168 l 0.0498,-0.3175 H 97.587218 87.496999 l 0.04878,0.3175 c 0.02683,0.174625 1.042642,9.556751 2.257363,20.849168 1.214721,11.292418 2.223623,20.579293 2.242005,20.637502 0.02628,0.0832 1.181569,0.105833 5.402801,0.105833 h 5.369372 z m 23.20916,-10.933417 c 3.11997,-0.712651 5.66775,-1.330234 5.66174,-1.372407 -0.0598,-0.419676 -6.67881,-28.883137 -6.72999,-28.940784 -0.0613,-0.06907 -6.29311,0.637245 -6.37884,0.722979 -0.10633,0.106322 -11.99358,29.726009 -11.94816,29.771432 0.0603,0.06035 9.36914,0.804027 9.42056,0.752607 0.0172,-0.0172 0.58425,-1.644694 1.26009,-3.616647 0.67585,-1.971953 1.23672,-3.589668 1.24638,-3.594924 0.01,-0.0053 0.54423,-0.105954 1.18795,-0.223773 l 1.17039,-0.214217 -0.0489,0.389658 c -0.0269,0.214312 -0.20072,1.913658 -0.38631,3.776325 -0.1856,1.862667 -0.35596,3.491442 -0.37858,3.6195 -0.0319,0.180698 -0.008,0.232066 0.10493,0.229407 0.0803,-0.0019 2.69875,-0.586504 5.81871,-1.299156 z m -7.40646,-11.320738 c 10e-4,-0.01889 0.39816,-1.252757 0.88251,-2.741925 0.6291,-1.934187 0.8941,-2.647618 0.92774,-2.497667 0.11256,0.501728 0.74726,5.087082 0.70939,5.124953 -0.0508,0.05083 -2.52229,0.16328 -2.51964,0.114639 z m 29.68298,12.047116 c 1.00489,-0.218482 2.11365,-0.660276 3.39865,-1.354218 l 1.03717,-0.560106 -8.5e-4,-0.807903 c -4.2e-4,-0.444346 -0.0954,-3.817802 -0.21096,-7.496569 -0.11557,-3.678767 -0.21044,-6.964892 -0.21083,-7.302501 l -6.9e-4,-0.613833 h -3.89467 -3.89467 l -0.003,0.402166 c -0.002,0.334138 -0.23611,7.130537 -0.2475,7.196668 -0.0121,0.07018 -1.07108,-0.0015 -1.56998,-0.106206 -1.63921,-0.344157 -2.6492,-1.276195 -3.04987,-2.81448 -0.16851,-0.646927 -0.16311,-2.230092 0.0103,-3.010434 0.53527,-2.409273 2.70211,-4.646497 5.11395,-5.280047 0.3777,-0.09922 0.85577,-0.1422 1.524,-0.137029 1.26532,0.0098 2.32441,0.275757 3.57539,0.897872 l 0.90839,0.451743 0.12462,-0.42996 c 0.79788,-2.752847 2.84227,-10.059289 2.84227,-10.158017 0,-0.0795 -0.13009,-0.162861 -0.33867,-0.217014 -0.18626,-0.04836 -0.48264,-0.125231 -0.65862,-0.170821 -2.08263,-0.539553 -5.89083,-0.761834 -8.07359,-0.47125 -4.98409,0.663519 -9.77648,3.575954 -12.441,7.560663 -2.67733,4.003871 -3.5291,10.189611 -2.03145,14.752813 0.29183,0.889182 1.31829,2.86642 1.86804,3.598334 2.60129,3.463284 6.13756,5.580533 10.32995,6.184784 1.23537,0.178054 4.87269,0.107292 5.89352,-0.114655 z"
         id="path2420" />
    </g>
  </g>
</svg>
